<svg width="24" height="24" viewBox="0 0 24 24" fill="none" xmlns="http://www.w3.org/2000/svg">
<path d="M4.59986 11.9482C3.74664 10.4604 3.33466 9.24554 3.08626 8.01409C2.71886 6.19282 3.55963 4.41373 4.95244 3.27852C5.54111 2.79874 6.21591 2.96267 6.564 3.58716L7.34986 4.99702C7.97276 6.11452 8.28421 6.67325 8.22243 7.26563C8.16066 7.85801 7.74063 8.34048 6.90057 9.30541L4.59986 11.9482ZM4.59986 11.9482C6.32686 14.9595 9.03706 17.6712 12.0518 19.4002M12.0518 19.4002C13.5396 20.2534 14.7545 20.6654 15.9859 20.9138C17.8072 21.2812 19.5863 20.4404 20.7215 19.0476C21.2012 18.459 21.0374 17.7841 20.4128 17.436L19.003 16.6501C17.8855 16.0272 17.3267 15.7158 16.7344 15.7776C16.142 15.8393 15.6595 16.2593 14.6946 17.0994L12.0518 19.4002Z" stroke="#393E51" stroke-linejoin="round"/>
</svg>
