<svg width="39" height="21" viewBox="0 0 39 21" fill="none" xmlns="http://www.w3.org/2000/svg">
<path d="M7.41182 7.66895C7.84215 11.3442 14.3261 18.968 22.7059 19.8228C31.1089 20.6776 38 16.2115 38 7.66895H7.41182Z" stroke="white" stroke-miterlimit="10" stroke-linecap="round" stroke-linejoin="round"/>
<path d="M33.8599 10.8086C33.6321 10.8086 33.4474 10.6226 33.4474 10.3931C33.4474 10.1636 33.6321 9.97754 33.8599 9.97754C34.0878 9.97754 34.2725 10.1636 34.2725 10.3931C34.2725 10.6226 34.0878 10.8086 33.8599 10.8086Z" fill="white" stroke="white" stroke-miterlimit="10"/>
<path d="M7.41211 1.06272C7.41211 1.06272 5.0046 0.481194 4.77199 2.85963C4.52193 5.38344 7.41211 7.73862 7.41211 7.73862C7.41211 7.73862 6.70846 5.53464 7.41211 1.06272Z" stroke="white" stroke-miterlimit="10" stroke-linecap="round" stroke-linejoin="round"/>
<path d="M0.544901 7.45029C0.544901 7.45029 0.175418 5.00126 2.56507 4.97683C5.10108 4.94769 7.1954 8.03213 7.1954 8.03213C7.1954 8.03213 5.06113 7.13908 0.544901 7.45029Z" stroke="white" stroke-miterlimit="10" stroke-linecap="round" stroke-linejoin="round"/>
<path d="M28.2482 7.66895C28.0388 8.40167 27.9225 9.17509 27.9225 9.97178C27.9225 13.3795 29.9753 16.3046 32.8945 17.5549" stroke="white" stroke-miterlimit="10" stroke-linecap="round" stroke-linejoin="round"/>
<path d="M26.4161 19.8754C26.4219 19.7358 26.4277 19.6486 26.4277 19.509C26.4277 15.1883 23.0316 11.6875 18.8447 11.6875C16.2278 11.6875 13.9191 13.0541 12.5584 15.1359" stroke="white" stroke-miterlimit="10" stroke-linecap="round" stroke-linejoin="round"/>
<path d="M23.8802 19.9274C23.9267 17.0605 21.6239 14.7344 18.8442 14.7344C17.1229 14.7344 15.6574 15.5718 14.7502 16.9267" stroke="white" stroke-miterlimit="10" stroke-linecap="round" stroke-linejoin="round"/>
<path d="M21.2637 7.66895C21.1125 7.93063 20.9787 8.20395 20.8566 8.48308C20.3914 9.56471 20.1878 10.7045 20.2111 11.8152" stroke="white" stroke-miterlimit="10" stroke-linecap="round" stroke-linejoin="round"/>
<path d="M24.5957 7.73828C24.0898 8.20932 23.6711 8.79665 23.3803 9.47704C22.886 10.6226 22.8337 11.8555 23.1361 12.9778" stroke="white" stroke-miterlimit="10" stroke-linecap="round" stroke-linejoin="round"/>
</svg>
